<svg width="347" height="268" viewBox="0 0 347 268" fill="none" xmlns="http://www.w3.org/2000/svg">
<path d="M347 134C347 151.597 342.512 169.022 333.793 185.28C325.074 201.537 312.294 216.309 296.183 228.752C280.072 241.195 260.946 251.066 239.896 257.8C218.846 264.534 196.284 268 173.5 268C150.716 268 128.154 264.534 107.104 257.8C86.0544 251.066 66.9279 241.195 50.817 228.752C34.706 216.309 21.9261 201.537 13.2069 185.28C4.48771 169.022 -1.99187e-06 151.597 0 134L173.5 134H347Z" fill="#191919"/>
<path d="M136.984 186.297C137.214 185.911 137.505 185.719 137.859 185.719H140.359C140.714 185.719 140.927 185.911 141 186.297L144.969 207.359C144.99 207.443 145 207.505 145 207.547C145 207.693 144.943 207.807 144.828 207.891C144.724 207.964 144.589 208 144.422 208H141.297C140.943 208 140.734 207.818 140.672 207.453L139.984 203.859H130.797L128.594 207.437C128.479 207.646 128.354 207.792 128.219 207.875C128.083 207.958 127.922 208 127.734 208H124.297C124.026 208 123.891 207.906 123.891 207.719C123.891 207.604 123.932 207.484 124.016 207.359L136.984 186.297ZM139.391 199.984L138.031 191.484L133.031 199.984H139.391ZM152.703 183.906C152.797 183.49 153.047 183.281 153.453 183.281H156.594C156.917 183.281 157.078 183.417 157.078 183.687C157.078 183.729 157.068 183.802 157.047 183.906L155.516 191.109C156.484 190.339 157.516 189.74 158.609 189.312C159.714 188.885 160.828 188.672 161.953 188.672C163.495 188.672 164.828 189.016 165.953 189.703C167.078 190.38 167.932 191.302 168.516 192.469C169.109 193.625 169.406 194.917 169.406 196.344C169.406 197.052 169.328 197.776 169.172 198.516C168.766 200.401 167.99 202.094 166.844 203.594C165.708 205.083 164.339 206.25 162.734 207.094C161.141 207.927 159.474 208.344 157.734 208.344C156.651 208.344 155.651 208.12 154.734 207.672C153.828 207.214 153.052 206.578 152.406 205.766L151.781 207.172C151.667 207.422 151.531 207.625 151.375 207.781C151.229 207.927 151.031 208 150.781 208H148.203C147.859 208 147.688 207.865 147.688 207.594C147.688 207.552 147.698 207.479 147.719 207.375L152.703 183.906ZM153.656 198.5C153.563 198.917 153.516 199.328 153.516 199.734C153.516 200.63 153.719 201.437 154.125 202.156C154.542 202.875 155.109 203.437 155.828 203.844C156.557 204.25 157.38 204.453 158.297 204.453C159.37 204.453 160.38 204.187 161.328 203.656C162.286 203.125 163.094 202.406 163.75 201.5C164.417 200.594 164.865 199.594 165.094 198.5C165.219 197.885 165.281 197.297 165.281 196.734C165.281 195.432 164.927 194.391 164.219 193.609C163.51 192.818 162.427 192.422 160.969 192.422C159.896 192.422 158.839 192.698 157.797 193.25C156.766 193.792 155.875 194.531 155.125 195.469C154.385 196.396 153.896 197.406 153.656 198.5ZM171.918 198.484C172.314 196.693 173.095 195.047 174.262 193.547C175.439 192.047 176.855 190.859 178.512 189.984C180.168 189.099 181.892 188.656 183.684 188.656C185.246 188.656 186.652 189 187.902 189.687C189.152 190.365 190.132 191.302 190.84 192.5C191.548 193.698 191.902 195.036 191.902 196.516C191.902 197.13 191.829 197.786 191.684 198.484C191.288 200.266 190.496 201.911 189.309 203.422C188.132 204.932 186.704 206.13 185.027 207.016C183.35 207.901 181.616 208.344 179.824 208.344C178.272 208.344 176.876 208.005 175.637 207.328C174.408 206.641 173.444 205.703 172.746 204.516C172.048 203.318 171.699 201.979 171.699 200.5C171.699 199.802 171.772 199.13 171.918 198.484ZM176.199 198.484C176.085 198.984 176.027 199.51 176.027 200.062C176.027 201.354 176.408 202.396 177.168 203.187C177.939 203.979 179.053 204.375 180.512 204.375C181.46 204.375 182.423 204.109 183.402 203.578C184.392 203.036 185.246 202.312 185.965 201.406C186.694 200.5 187.173 199.526 187.402 198.484C187.517 197.932 187.574 197.417 187.574 196.937C187.574 195.646 187.189 194.609 186.418 193.828C185.647 193.036 184.507 192.641 182.996 192.641C182.1 192.641 181.163 192.906 180.184 193.437C179.215 193.958 178.361 194.672 177.621 195.578C176.892 196.474 176.418 197.443 176.199 198.484ZM209.533 189.484C209.627 189.057 209.887 188.844 210.314 188.844H213.424C213.768 188.844 213.939 188.984 213.939 189.266C213.939 189.307 213.929 189.38 213.908 189.484L210.111 207.359C210.018 207.786 209.768 208 209.361 208H207.361C207.153 208 206.976 207.927 206.83 207.781C206.695 207.635 206.632 207.458 206.643 207.25L206.611 205.391C205.726 206.359 204.788 207.068 203.799 207.516C202.82 207.953 201.747 208.172 200.58 208.172C199.559 208.172 198.58 207.974 197.643 207.578C196.715 207.182 195.95 206.547 195.346 205.672C194.742 204.797 194.439 203.677 194.439 202.312C194.439 201.667 194.528 200.917 194.705 200.062L196.955 189.484C197.049 189.057 197.299 188.844 197.705 188.844H200.736C201.08 188.844 201.252 188.984 201.252 189.266C201.252 189.307 201.242 189.38 201.221 189.484L199.002 199.969C198.898 200.51 198.846 200.948 198.846 201.281C198.846 202.229 199.122 202.948 199.674 203.437C200.226 203.917 201.044 204.156 202.127 204.156C202.648 204.156 203.278 204.005 204.018 203.703C204.757 203.391 205.45 202.885 206.096 202.187C206.742 201.49 207.179 200.594 207.408 199.5L209.533 189.484ZM225.508 188.969C225.862 188.969 226.039 189.115 226.039 189.406C226.039 189.448 226.029 189.521 226.008 189.625L225.492 192.109C225.44 192.318 225.336 192.479 225.18 192.594C225.023 192.708 224.846 192.766 224.648 192.766H222.492L220.508 202.109C220.435 202.505 220.398 202.818 220.398 203.047C220.398 203.453 220.492 203.771 220.68 204C220.878 204.219 221.201 204.344 221.648 204.375L222.117 204.406C222.544 204.427 222.758 204.604 222.758 204.937C222.758 205.01 222.742 205.109 222.711 205.234L222.258 207.359C222.216 207.547 222.102 207.719 221.914 207.875C221.737 208.031 221.414 208.109 220.945 208.109C219.945 208.109 219.065 207.943 218.305 207.609C217.555 207.276 216.971 206.792 216.555 206.156C216.148 205.521 215.945 204.771 215.945 203.906C215.945 203.458 215.997 203.01 216.102 202.562L218.195 192.766H216.461C216.326 192.766 216.201 192.724 216.086 192.641C215.982 192.557 215.93 192.437 215.93 192.281C215.93 192.208 215.935 192.151 215.945 192.109L216.461 189.672C216.513 189.443 216.612 189.271 216.758 189.156C216.914 189.031 217.081 188.969 217.258 188.969H218.992L219.664 185.828C219.716 185.609 219.794 185.453 219.898 185.359C220.003 185.255 220.18 185.172 220.43 185.109L223.68 184.219L223.867 184.187C224.096 184.187 224.211 184.318 224.211 184.578C224.211 184.651 224.195 184.745 224.164 184.859L223.289 188.969H225.508Z" fill="white"/>
</svg>
