<svg width="347" height="268" viewBox="0 0 347 268" fill="none" xmlns="http://www.w3.org/2000/svg">
<path d="M347 134C347 151.597 342.512 169.022 333.793 185.28C325.074 201.537 312.294 216.309 296.183 228.752C280.072 241.195 260.946 251.066 239.896 257.8C218.846 264.534 196.284 268 173.5 268C150.716 268 128.154 264.534 107.104 257.8C86.0544 251.066 66.9279 241.195 50.817 228.752C34.706 216.309 21.9261 201.537 13.2069 185.28C4.48771 169.022 -1.99187e-06 151.597 0 134L173.5 134H347Z" fill="black"/>
<path d="M126.984 202.844C127.245 202.687 127.443 202.609 127.578 202.609C127.734 202.609 127.849 202.682 127.922 202.828L129.047 205.359C129.12 205.464 129.156 205.568 129.156 205.672C129.156 205.828 129.005 206.016 128.703 206.234C127.641 206.901 126.542 207.417 125.406 207.781C124.281 208.135 123.063 208.313 121.75 208.313C119.948 208.313 118.333 207.922 116.906 207.141C115.49 206.349 114.385 205.266 113.594 203.891C112.802 202.505 112.406 200.953 112.406 199.234C112.406 198.484 112.495 197.682 112.672 196.828C113.12 194.734 114.031 192.818 115.406 191.078C116.792 189.328 118.458 187.948 120.406 186.937C122.354 185.917 124.375 185.406 126.469 185.406C127.688 185.406 128.802 185.604 129.813 186C130.833 186.396 131.74 186.937 132.531 187.625C132.646 187.729 132.703 187.854 132.703 188C132.703 188.146 132.651 188.271 132.547 188.375L130.828 190.672C130.724 190.797 130.594 190.859 130.438 190.859C130.302 190.859 130.151 190.802 129.984 190.687C129.328 190.229 128.703 189.901 128.109 189.703C127.516 189.495 126.828 189.391 126.047 189.391C124.724 189.391 123.443 189.724 122.203 190.391C120.964 191.057 119.891 191.964 118.984 193.109C118.078 194.245 117.453 195.484 117.109 196.828C116.911 197.62 116.813 198.339 116.813 198.984C116.813 199.995 117.016 200.896 117.422 201.687C117.839 202.469 118.448 203.083 119.25 203.531C120.052 203.979 121.021 204.203 122.156 204.203C122.958 204.203 123.807 204.078 124.703 203.828C125.599 203.578 126.359 203.25 126.984 202.844ZM133.631 198.484C134.027 196.693 134.808 195.047 135.975 193.547C137.152 192.047 138.568 190.859 140.225 189.984C141.881 189.099 143.605 188.656 145.396 188.656C146.959 188.656 148.365 189 149.615 189.687C150.865 190.365 151.844 191.302 152.553 192.5C153.261 193.698 153.615 195.036 153.615 196.516C153.615 197.13 153.542 197.786 153.396 198.484C153.001 200.266 152.209 201.911 151.021 203.422C149.844 204.932 148.417 206.13 146.74 207.016C145.063 207.901 143.329 208.344 141.537 208.344C139.985 208.344 138.589 208.005 137.35 207.328C136.12 206.641 135.157 205.703 134.459 204.516C133.761 203.318 133.412 201.979 133.412 200.5C133.412 199.802 133.485 199.13 133.631 198.484ZM137.912 198.484C137.798 198.984 137.74 199.51 137.74 200.062C137.74 201.354 138.12 202.396 138.881 203.187C139.652 203.979 140.766 204.375 142.225 204.375C143.173 204.375 144.136 204.109 145.115 203.578C146.105 203.036 146.959 202.312 147.678 201.406C148.407 200.5 148.886 199.526 149.115 198.484C149.23 197.932 149.287 197.417 149.287 196.937C149.287 195.646 148.902 194.609 148.131 193.828C147.36 193.036 146.219 192.641 144.709 192.641C143.813 192.641 142.876 192.906 141.896 193.437C140.928 193.958 140.074 194.672 139.334 195.578C138.605 196.474 138.131 197.443 137.912 198.484ZM159.137 207.359C159.085 207.557 158.965 207.714 158.777 207.828C158.59 207.943 158.382 208 158.152 208H155.387C155.022 208 154.84 207.854 154.84 207.562C154.84 207.531 154.85 207.464 154.871 207.359L158.668 189.484C158.762 189.057 159.022 188.844 159.449 188.844H161.48C161.689 188.844 161.861 188.917 161.996 189.062C162.132 189.208 162.204 189.391 162.215 189.609L161.996 191.766C162.954 190.724 163.98 189.953 165.074 189.453C166.178 188.953 167.309 188.703 168.465 188.703C169.423 188.703 170.345 188.958 171.23 189.469C172.126 189.979 172.85 190.724 173.402 191.703C173.965 192.682 174.246 193.849 174.246 195.203C174.246 195.87 174.158 196.62 173.98 197.453L171.824 207.375C171.73 207.792 171.491 208 171.105 208H168.09C167.725 208 167.543 207.859 167.543 207.578C167.543 207.547 167.553 207.479 167.574 207.375L169.793 196.937C169.866 196.604 169.902 196.255 169.902 195.891C169.902 194.932 169.616 194.167 169.043 193.594C168.47 193.021 167.678 192.734 166.668 192.734C165.98 192.734 165.257 192.917 164.496 193.281C163.736 193.635 163.059 194.151 162.465 194.828C161.882 195.495 161.496 196.266 161.309 197.141L159.137 207.359ZM186.635 188.969C186.989 188.969 187.166 189.115 187.166 189.406C187.166 189.448 187.156 189.521 187.135 189.625L186.619 192.109C186.567 192.318 186.463 192.479 186.307 192.594C186.15 192.708 185.973 192.766 185.775 192.766H183.619L181.635 202.109C181.562 202.505 181.525 202.818 181.525 203.047C181.525 203.453 181.619 203.771 181.807 204C182.005 204.219 182.327 204.344 182.775 204.375L183.244 204.406C183.671 204.427 183.885 204.604 183.885 204.937C183.885 205.01 183.869 205.109 183.838 205.234L183.385 207.359C183.343 207.547 183.229 207.719 183.041 207.875C182.864 208.031 182.541 208.109 182.072 208.109C181.072 208.109 180.192 207.943 179.432 207.609C178.682 207.276 178.098 206.792 177.682 206.156C177.275 205.521 177.072 204.771 177.072 203.906C177.072 203.458 177.124 203.01 177.229 202.562L179.322 192.766H177.588C177.452 192.766 177.327 192.724 177.213 192.641C177.109 192.557 177.057 192.437 177.057 192.281C177.057 192.208 177.062 192.151 177.072 192.109L177.588 189.672C177.64 189.443 177.739 189.271 177.885 189.156C178.041 189.031 178.208 188.969 178.385 188.969H180.119L180.791 185.828C180.843 185.609 180.921 185.453 181.025 185.359C181.13 185.255 181.307 185.172 181.557 185.109L184.807 184.219L184.994 184.187C185.223 184.187 185.338 184.318 185.338 184.578C185.338 184.651 185.322 184.745 185.291 184.859L184.416 188.969H186.635ZM205.387 207.375C205.293 207.792 205.053 208 204.668 208H201.996C201.767 208 201.585 207.937 201.449 207.812C201.314 207.677 201.246 207.5 201.246 207.281C201.246 207.187 201.251 207.115 201.262 207.062L201.527 205.812C200.527 206.615 199.47 207.24 198.355 207.687C197.251 208.125 196.147 208.344 195.043 208.344C193.585 208.344 192.257 208.026 191.059 207.391C189.871 206.745 188.934 205.839 188.246 204.672C187.559 203.505 187.215 202.172 187.215 200.672C187.215 199.984 187.293 199.266 187.449 198.516C187.814 196.734 188.59 195.089 189.777 193.578C190.975 192.068 192.413 190.87 194.09 189.984C195.767 189.099 197.48 188.656 199.23 188.656C200.543 188.656 201.647 188.875 202.543 189.312C203.449 189.74 204.21 190.417 204.824 191.344L205.496 189.469C205.569 189.25 205.658 189.094 205.762 189C205.876 188.896 206.033 188.844 206.23 188.844H208.73C209.053 188.844 209.215 188.99 209.215 189.281C209.215 189.354 209.21 189.417 209.199 189.469L205.387 207.375ZM203.027 198.5C203.121 198.062 203.168 197.635 203.168 197.219C203.168 196.333 202.975 195.536 202.59 194.828C202.215 194.109 201.678 193.547 200.98 193.141C200.293 192.734 199.496 192.531 198.59 192.531C197.579 192.531 196.59 192.792 195.621 193.312C194.652 193.833 193.814 194.552 193.105 195.469C192.408 196.375 191.944 197.385 191.715 198.5C191.6 199.052 191.543 199.562 191.543 200.031C191.543 200.885 191.71 201.651 192.043 202.328C192.376 202.995 192.855 203.516 193.48 203.891C194.116 204.266 194.871 204.453 195.746 204.453C196.819 204.453 197.871 204.182 198.902 203.641C199.944 203.099 200.835 202.375 201.574 201.469C202.314 200.552 202.798 199.562 203.027 198.5ZM223.148 202.781C223.273 202.687 223.414 202.641 223.57 202.641C223.737 202.641 223.841 202.698 223.883 202.812L225.164 205.125C225.206 205.208 225.227 205.302 225.227 205.406C225.227 205.625 225.107 205.823 224.867 206C223.94 206.677 222.888 207.24 221.711 207.687C220.534 208.135 219.378 208.359 218.242 208.359C216.68 208.359 215.279 208.026 214.039 207.359C212.799 206.693 211.831 205.771 211.133 204.594C210.435 203.406 210.086 202.057 210.086 200.547C210.086 199.828 210.159 199.135 210.305 198.469C210.68 196.687 211.471 195.047 212.68 193.547C213.888 192.036 215.336 190.844 217.023 189.969C218.711 189.094 220.424 188.656 222.164 188.656C223.424 188.656 224.523 188.849 225.461 189.234C226.409 189.609 227.268 190.172 228.039 190.922C228.143 191.026 228.195 191.135 228.195 191.25C228.195 191.354 228.143 191.469 228.039 191.594L226.164 193.828C226.07 193.943 225.935 194 225.758 194C225.633 194 225.529 193.964 225.445 193.891C224.893 193.37 224.294 193.01 223.648 192.812C223.013 192.604 222.31 192.5 221.539 192.5C220.622 192.5 219.654 192.76 218.633 193.281C217.622 193.802 216.732 194.521 215.961 195.437C215.19 196.354 214.685 197.37 214.445 198.484C214.32 199.057 214.258 199.609 214.258 200.141C214.258 201.026 214.424 201.807 214.758 202.484C215.102 203.151 215.607 203.677 216.273 204.062C216.951 204.437 217.763 204.625 218.711 204.625C219.253 204.625 219.784 204.531 220.305 204.344C220.836 204.156 221.289 203.953 221.664 203.734C222.049 203.505 222.544 203.187 223.148 202.781ZM239.34 188.969C239.694 188.969 239.871 189.115 239.871 189.406C239.871 189.448 239.861 189.521 239.84 189.625L239.324 192.109C239.272 192.318 239.168 192.479 239.012 192.594C238.855 192.708 238.678 192.766 238.48 192.766H236.324L234.34 202.109C234.267 202.505 234.23 202.818 234.23 203.047C234.23 203.453 234.324 203.771 234.512 204C234.71 204.219 235.033 204.344 235.48 204.375L235.949 204.406C236.376 204.427 236.59 204.604 236.59 204.937C236.59 205.01 236.574 205.109 236.543 205.234L236.09 207.359C236.048 207.547 235.934 207.719 235.746 207.875C235.569 208.031 235.246 208.109 234.777 208.109C233.777 208.109 232.897 207.943 232.137 207.609C231.387 207.276 230.803 206.792 230.387 206.156C229.98 205.521 229.777 204.771 229.777 203.906C229.777 203.458 229.829 203.01 229.934 202.562L232.027 192.766H230.293C230.158 192.766 230.033 192.724 229.918 192.641C229.814 192.557 229.762 192.437 229.762 192.281C229.762 192.208 229.767 192.151 229.777 192.109L230.293 189.672C230.345 189.443 230.444 189.271 230.59 189.156C230.746 189.031 230.913 188.969 231.09 188.969H232.824L233.496 185.828C233.548 185.609 233.626 185.453 233.73 185.359C233.835 185.255 234.012 185.172 234.262 185.109L237.512 184.219L237.699 184.187C237.928 184.187 238.043 184.318 238.043 184.578C238.043 184.651 238.027 184.745 237.996 184.859L237.121 188.969H239.34Z" fill="white"/>
</svg>
