<svg width="64" height="77" viewBox="0 0 64 77" fill="none" xmlns="http://www.w3.org/2000/svg">
<path d="M1.33651 12.9802C1.20604 12.3639 1.26495 11.8454 1.51323 11.4249C1.78466 10.9688 2.22854 10.6755 2.84489 10.545L46.5611 1.29072C47.2068 1.15403 47.7461 1.23918 48.1791 1.54617C48.612 1.85316 48.8969 2.3295 49.0336 2.97519L51.3448 13.8932C51.4504 14.3922 51.3768 14.9137 51.1241 15.4579C50.8651 15.9727 50.398 16.3015 49.723 16.4444L21.1952 22.4835L23.4971 33.3575L45.5093 28.6977C46.067 28.5797 46.5498 28.6155 46.958 28.8051C47.3954 28.9884 47.6794 29.3883 47.8099 30.0046L49.8229 39.5139C49.9099 39.9248 49.8323 40.3552 49.5902 40.8051C49.3482 41.255 48.919 41.5451 48.3026 41.6756L26.2464 46.3447L28.6229 57.5709L58.2073 51.3082C59.528 51.0286 60.3313 51.5638 60.6171 52.9139L62.9656 64.0081C63.0277 64.3016 62.9663 64.5906 62.7812 64.8751C62.8377 65.7217 62.323 66.26 61.2371 66.4898L16.6844 75.9212C16.0974 76.0455 15.5968 75.9982 15.1825 75.7792C14.7619 75.5309 14.4833 75.084 14.3466 74.4383L1.33651 12.9802Z" fill="white"/>
</svg>
