<svg width="78" height="84" viewBox="0 0 78 84" fill="none" xmlns="http://www.w3.org/2000/svg">
<path d="M1.28799 22.849C1.13322 22.3621 1.13998 21.8775 1.30829 21.3951C1.49385 20.874 1.8527 20.5113 2.38484 20.307L14.862 15.5172C15.2821 15.3559 15.7861 15.3713 16.374 15.5633C16.9512 15.7274 17.3419 16.0755 17.5461 16.6076L25.1906 36.5207L46.0699 28.5053L38.4255 8.59223C38.2319 8.0881 38.2333 7.58948 38.4297 7.09636C38.654 6.5925 39.0462 6.23305 39.6064 6.01802L51.9155 1.29264C52.4756 1.07761 53.0195 1.02949 53.5471 1.14829C54.0748 1.26708 54.4569 1.63456 54.6934 2.25071L77.2558 61.0237C77.4924 61.6399 77.4877 62.1719 77.2419 62.6197C76.9961 63.0676 76.5791 63.4044 75.991 63.6302L63.5558 68.404C62.9956 68.619 62.4744 68.6424 61.992 68.474C61.5377 68.295 61.1922 67.8974 60.9557 67.2812L51.7952 43.4191L30.9159 51.4345L40.0763 75.2966C40.3021 75.8848 40.2835 76.4222 40.0204 76.9088C39.7746 77.3566 39.3296 77.7042 38.6854 77.9515L26.3343 82.693C25.158 83.1445 24.3462 82.8296 23.8988 81.748L1.28799 22.849Z" fill="#CCCCCC"/>
</svg>
