<svg width="54" height="73" viewBox="0 0 54 73" fill="none" xmlns="http://www.w3.org/2000/svg">
<path d="M9.02568 2.72282C9.09562 2.18737 9.33433 1.7496 9.74181 1.40951C10.1493 1.06942 10.6654 0.940167 11.2901 1.02176L24.4979 2.7469C25.0036 2.81295 25.4414 3.05166 25.8112 3.46302C26.181 3.87439 26.342 4.37949 26.294 4.97832L19.953 53.526L44.4945 56.7314C45.03 56.8014 45.4677 57.0401 45.8078 57.4476C46.1479 57.855 46.2772 58.3711 46.1956 58.9958L44.6628 70.7311C44.5967 71.2368 44.358 71.6746 43.9466 72.0445C43.565 72.4182 43.0599 72.5791 42.4313 72.5273L2.5848 67.3227C1.27591 67.1518 0.706953 66.4118 0.877912 65.103L9.02568 2.72282Z" fill="#CCCCCC"/>
</svg>
