<svg width="85" height="75" viewBox="0 0 85 75" fill="none" xmlns="http://www.w3.org/2000/svg">
<path d="M13.3926 2.68522C13.5044 2.15351 13.7582 1.71091 14.1541 1.35741C14.55 1.00391 15.0764 0.858957 15.7334 0.922546L31.2309 2.42269C32.3358 2.52963 32.9975 3.16635 33.2161 4.33284L41.4624 46.1821L57.6718 6.70012C58.1997 5.60589 59.016 5.11225 60.1209 5.21919L75.4393 6.70199C75.9768 6.75402 76.4358 6.99436 76.8162 7.423C77.2294 7.82469 77.4385 8.31209 77.4433 8.88522C77.4709 19.4973 77.5208 30.0361 77.5928 40.5017C77.6975 50.9404 77.7637 61.4657 77.7914 72.0778L77.7697 72.3017C77.657 73.4663 76.9437 73.985 75.6298 73.8578L62.9541 72.6308C61.5805 72.4978 60.9274 71.7715 60.9949 70.4519L60.4496 35.4515L46.9985 69.3231C46.9099 69.6159 46.6513 69.9526 46.2226 70.333C45.8238 70.7164 45.4453 70.8907 45.087 70.8561L33.307 69.7158C32.9487 69.6811 32.5793 69.4494 32.1988 69.0208C31.8511 68.5652 31.6782 68.1717 31.6801 67.8403L24.9667 32.1072L17.7271 66.2636C17.5402 67.5717 16.7451 68.1578 15.3416 68.022L2.66587 66.795C1.38187 66.6707 0.803465 65.9516 0.930644 64.6378L13.3926 2.68522Z" fill="white"/>
</svg>
