<svg width="63" height="71" viewBox="0 0 63 71" fill="none" xmlns="http://www.w3.org/2000/svg">
<path d="M3.77312 2.67468C3.7986 2.13528 3.98536 1.67859 4.3334 1.3046C4.68144 0.930608 5.18509 0.759189 5.84436 0.790338L20.543 1.48483C20.9625 1.50465 21.3921 1.63006 21.8316 1.86106C22.2712 2.09207 22.6438 2.47007 22.9494 2.99508C26.4649 9.31804 29.9546 15.5497 33.4187 21.69C36.8828 27.8304 40.3875 34.0627 43.933 40.3871L45.6342 4.38225C45.7795 3.84852 46.0391 3.44031 46.4128 3.15764C46.7866 2.87496 47.2132 2.74495 47.6927 2.76761L60.5034 3.37289C61.1327 3.40263 61.6486 3.6072 62.0511 3.98662C62.4551 4.33608 62.6422 4.82546 62.6125 5.45475L59.6349 68.4745C59.6066 69.0738 59.4055 69.5148 59.0318 69.7975C58.6594 70.0502 58.1586 70.1617 57.5293 70.1319L43.1903 69.4544C42.8007 69.436 42.4625 69.2849 42.1756 69.001C41.8887 68.7172 41.591 68.3427 41.2826 67.8776C37.6085 61.0967 33.9759 54.3928 30.3847 47.7659C26.7934 41.139 23.1458 34.4344 19.4418 27.652L17.6174 66.2639C17.5862 66.9232 17.4131 67.4106 17.0978 67.726C16.7826 68.0415 16.2354 68.1809 15.4563 68.144L2.69049 67.5409C2.00126 67.5083 1.50033 67.3044 1.18769 66.9293C0.906426 66.5255 0.778539 66.054 0.804025 65.5146L3.77312 2.67468Z" fill="white"/>
</svg>
