<svg width="70" height="69" viewBox="0 0 70 69" fill="none" xmlns="http://www.w3.org/2000/svg">
<path d="M18.0129 34.61C18.0129 37.1 18.4329 39.425 19.2729 41.585C20.1129 43.745 21.2829 45.635 22.7829 47.255C24.3129 48.845 26.1129 50.105 28.1829 51.035C30.2529 51.935 32.5329 52.385 35.0229 52.385C37.5129 52.385 39.7929 51.935 41.8629 51.035C43.9629 50.105 45.7629 48.845 47.2629 47.255C48.7929 45.635 49.9779 43.745 50.8179 41.585C51.6579 39.425 52.0779 37.1 52.0779 34.61C52.0779 32.15 51.6579 29.84 50.8179 27.68C49.9779 25.49 48.7929 23.585 47.2629 21.965C45.7629 20.345 43.9629 19.07 41.8629 18.14C39.7929 17.21 37.5129 16.745 35.0229 16.745C32.5329 16.745 30.2529 17.21 28.1829 18.14C26.1129 19.07 24.3129 20.345 22.7829 21.965C21.2829 23.585 20.1129 25.49 19.2729 27.68C18.4329 29.84 18.0129 32.15 18.0129 34.61ZM0.642915 34.655C0.642915 31.475 1.04791 28.43 1.85791 25.52C2.66791 22.58 3.82291 19.835 5.32291 17.285C6.82291 14.705 8.60792 12.365 10.6779 10.265C12.7779 8.165 15.1029 6.38 17.6529 4.91C20.2029 3.41 22.9329 2.255 25.8429 1.445C28.7829 0.604996 31.8429 0.184996 35.0229 0.184996C38.1729 0.184996 41.2179 0.604996 44.1579 1.445C47.0979 2.255 49.8429 3.41 52.3929 4.91C54.9429 6.38 57.2679 8.165 59.3679 10.265C61.4679 12.365 63.2529 14.705 64.7229 17.285C66.2229 19.835 67.3779 22.58 68.1879 25.52C69.0279 28.43 69.4479 31.475 69.4479 34.655C69.4479 37.835 69.0279 40.895 68.1879 43.835C67.3779 46.745 66.2229 49.475 64.7229 52.025C63.2529 54.545 61.4679 56.855 59.3679 58.955C57.2679 61.025 54.9429 62.81 52.3929 64.31C49.8429 65.81 47.0979 66.965 44.1579 67.775C41.2179 68.585 38.1729 68.99 35.0229 68.99C31.8429 68.99 28.7829 68.585 25.8429 67.775C22.9329 66.965 20.2029 65.81 17.6529 64.31C15.1029 62.81 12.7779 61.025 10.6779 58.955C8.60792 56.855 6.82291 54.545 5.32291 52.025C3.82291 49.475 2.66791 46.745 1.85791 43.835C1.04791 40.895 0.642915 37.835 0.642915 34.655Z" fill="white"/>
</svg>
