<svg width="347" height="268" viewBox="0 0 347 268" fill="none" xmlns="http://www.w3.org/2000/svg">
<path d="M347 134C347 151.597 342.512 169.022 333.793 185.28C325.074 201.537 312.294 216.309 296.183 228.752C280.072 241.195 260.946 251.066 239.896 257.8C218.846 264.534 196.284 268 173.5 268C150.716 268 128.154 264.534 107.104 257.8C86.0544 251.066 66.9279 241.195 50.817 228.752C34.706 216.309 21.9261 201.537 13.2069 185.28C4.48771 169.022 -1.99187e-06 151.597 0 134L173.5 134H347Z" fill="#191919"/>
<path d="M142.172 207.437C141.943 207.812 141.651 208 141.297 208H138.766C138.422 208 138.208 207.812 138.125 207.437L134.297 186.391C134.266 186.193 134.302 186.036 134.406 185.922C134.521 185.797 134.672 185.734 134.859 185.734H138C138.354 185.734 138.563 185.922 138.625 186.297L141.188 202.094L150.203 186.297C150.411 185.922 150.693 185.734 151.047 185.734H154.672C154.797 185.734 154.891 185.766 154.953 185.828C155.026 185.88 155.063 185.958 155.063 186.062C155.063 186.167 155.026 186.276 154.953 186.391L149.797 194.844L150.891 202.219L160.516 186.297C160.641 186.089 160.766 185.943 160.891 185.859C161.026 185.776 161.188 185.734 161.375 185.734H164.953C165.078 185.734 165.177 185.766 165.25 185.828C165.323 185.88 165.359 185.953 165.359 186.047C165.359 186.141 165.318 186.255 165.234 186.391L152.203 207.437C151.974 207.812 151.682 208 151.328 208H148.953C148.578 208 148.354 207.812 148.281 207.437L146.719 199.875L142.172 207.437ZM162.039 198.484C162.435 196.693 163.216 195.047 164.383 193.547C165.56 192.047 166.977 190.859 168.633 189.984C170.289 189.099 172.013 188.656 173.805 188.656C175.367 188.656 176.773 189 178.023 189.687C179.273 190.365 180.253 191.302 180.961 192.5C181.669 193.698 182.023 195.036 182.023 196.516C182.023 197.13 181.951 197.786 181.805 198.484C181.409 200.266 180.617 201.911 179.43 203.422C178.253 204.932 176.826 206.13 175.148 207.016C173.471 207.901 171.737 208.344 169.945 208.344C168.393 208.344 166.997 208.005 165.758 207.328C164.529 206.641 163.565 205.703 162.867 204.516C162.169 203.318 161.82 201.979 161.82 200.5C161.82 199.802 161.893 199.13 162.039 198.484ZM166.32 198.484C166.206 198.984 166.148 199.51 166.148 200.062C166.148 201.354 166.529 202.396 167.289 203.187C168.06 203.979 169.174 204.375 170.633 204.375C171.581 204.375 172.544 204.109 173.523 203.578C174.513 203.036 175.367 202.312 176.086 201.406C176.815 200.5 177.294 199.526 177.523 198.484C177.638 197.932 177.695 197.417 177.695 196.937C177.695 195.646 177.31 194.609 176.539 193.828C175.768 193.036 174.628 192.641 173.117 192.641C172.221 192.641 171.284 192.906 170.305 193.437C169.336 193.958 168.482 194.672 167.742 195.578C167.013 196.474 166.539 197.443 166.32 198.484ZM187.045 189.5C187.139 189.073 187.383 188.859 187.779 188.859H189.936C190.196 188.859 190.389 188.901 190.514 188.984C190.639 189.068 190.701 189.26 190.701 189.562L190.654 191.203C192.102 189.495 193.743 188.641 195.576 188.641C196.305 188.641 196.988 188.766 197.623 189.016C198.269 189.266 198.816 189.552 199.264 189.875C199.712 190.187 200.055 190.474 200.295 190.734C200.451 190.901 200.529 191.068 200.529 191.234C200.529 191.401 200.436 191.578 200.248 191.766L198.42 193.75C198.274 193.917 198.123 194 197.967 194C197.831 194 197.691 193.937 197.545 193.812C197.087 193.437 196.633 193.141 196.186 192.922C195.738 192.703 195.201 192.594 194.576 192.594C193.93 192.594 193.274 192.75 192.607 193.062C191.941 193.375 191.347 193.859 190.826 194.516C190.316 195.161 189.962 195.953 189.764 196.891L187.529 207.375C187.456 207.792 187.212 208 186.795 208H183.717C183.383 208 183.217 207.865 183.217 207.594C183.217 207.552 183.227 207.479 183.248 207.375L187.045 189.5ZM216.234 206.984C216.297 207.089 216.328 207.203 216.328 207.328C216.328 207.505 216.255 207.661 216.109 207.797C215.974 207.932 215.813 208 215.625 208H212.5C212.333 208 212.198 207.964 212.094 207.891C212 207.807 211.896 207.661 211.781 207.453L207.469 199.719L205.219 201.594L203.984 207.391C203.891 207.797 203.656 208 203.281 208H200.109C199.786 208 199.625 207.865 199.625 207.594C199.625 207.562 199.635 207.495 199.656 207.391L204.641 183.891C204.734 183.484 204.974 183.281 205.359 183.281H208.531C208.833 183.281 208.984 183.417 208.984 183.687C208.984 183.771 208.979 183.839 208.969 183.891L206.5 195.672L214.078 189.25C214.307 189.083 214.49 188.974 214.625 188.922C214.771 188.87 214.938 188.844 215.125 188.844H218.922C219.099 188.844 219.234 188.891 219.328 188.984C219.432 189.078 219.484 189.193 219.484 189.328C219.484 189.516 219.406 189.682 219.25 189.828L210.688 197.109L216.234 206.984Z" fill="white"/>
</svg>
