<svg width="70" height="75" viewBox="0 0 70 75" fill="none" xmlns="http://www.w3.org/2000/svg">
<path d="M36.0446 28.7019L49.8927 7.0667C50.1184 6.73343 50.3005 6.50031 50.4392 6.36735C50.5817 6.20465 50.7164 6.10143 50.8433 6.05769C50.974 5.98421 51.0989 5.95535 51.2179 5.97109C51.3705 5.96103 51.54 5.93807 51.7263 5.9022L68.9016 8.17513C69.1098 8.20268 69.2635 8.29867 69.3628 8.46312C69.4957 8.60176 69.5504 8.7603 69.5268 8.93875C69.4835 9.26589 69.2261 9.6101 68.7546 9.97137L42.6558 44.6017L39.3556 69.5393C39.1706 70.9371 38.3941 71.5455 37.026 71.3644L23.6427 69.5933C23.0479 69.5146 22.6105 69.2752 22.3306 68.875C22.0546 68.445 21.9599 67.9029 22.0465 67.2486L25.3585 42.2218L9.19888 2.08993C8.86341 1.65214 8.7193 1.2548 8.76653 0.897909C8.79014 0.719463 8.8693 0.578631 9.00401 0.475413C9.14265 0.342453 9.31606 0.289748 9.52425 0.317299L26.6995 2.59022C26.8998 2.67726 27.0575 2.74351 27.1725 2.78899C27.2915 2.80474 27.4045 2.86509 27.5117 2.97006C27.6228 3.04528 27.726 3.17999 27.8214 3.37418C27.9206 3.53862 28.0508 3.81306 28.2117 4.1975L36.0446 28.7019Z" fill="white"/>
</svg>
