<svg width="78" height="81" viewBox="0 0 78 81" fill="none" xmlns="http://www.w3.org/2000/svg">
<path d="M41.1606 31.912L57.7385 12.2899C58.0061 11.9892 58.2174 11.7822 58.3723 11.6686C58.5351 11.5261 58.6822 11.4415 58.8137 11.4149C58.953 11.3593 59.0806 11.3471 59.1965 11.3784C59.3491 11.3885 59.5201 11.3881 59.7095 11.3771L76.4356 15.8931C76.6384 15.9478 76.7781 16.0632 76.8549 16.2393C76.9684 16.3943 77.0017 16.5586 76.9548 16.7324C76.8688 17.051 76.5683 17.3583 76.0533 17.6543L45.6194 48.5442L39.0624 72.8296C38.6949 74.1909 37.845 74.6916 36.5127 74.3319L23.4794 70.813C22.9001 70.6566 22.4981 70.3616 22.2734 69.928C22.0564 69.4655 22.034 68.9156 22.206 68.2784L28.7864 43.9061L18.0551 1.99503C17.7802 1.51685 17.6897 1.10398 17.7836 0.75643C17.8305 0.582652 17.9275 0.453477 18.0746 0.368906C18.2296 0.255372 18.4084 0.225974 18.6112 0.280713L35.3373 4.79669C35.5244 4.90935 35.6719 4.9958 35.78 5.05604C35.8958 5.08732 35.9999 5.16205 36.0923 5.28022C36.1925 5.36942 36.2771 5.51655 36.346 5.72161C36.4228 5.8977 36.5156 6.1869 36.6245 6.58919L41.1606 31.912Z" fill="#CCCCCC"/>
</svg>
